<svg width="26" height="26" viewBox="0 0 26 26" fill="none" xmlns="http://www.w3.org/2000/svg">
<path d="M20.7082 15.9747C19.8686 15.7941 19.2044 16.1839 18.6162 16.5244C18.0139 16.8752 16.8686 17.8043 16.2121 17.5666C12.851 16.1827 9.68986 13.2408 8.32142 9.86621C8.08025 9.19571 9.005 8.04313 9.35324 7.43371C9.69115 6.84377 10.0729 6.17327 9.8988 5.32736C9.74145 4.5672 7.70621 1.97747 6.98654 1.2693C6.5119 0.801508 6.02566 0.544221 5.52654 0.502633C3.64994 0.422071 1.55409 2.92605 1.18651 3.52507C0.265624 4.8024 0.270787 6.50203 1.20199 8.5629C3.44616 14.0984 11.934 22.4523 17.4902 24.7808C18.5156 25.2603 19.4532 25.5007 20.2955 25.5007C21.1196 25.5007 21.8535 25.2707 22.4843 24.8147C22.9601 24.5404 25.5667 22.3406 25.4984 20.4136C25.4571 19.9223 25.2005 19.4312 24.7388 18.9556C24.0358 18.2292 21.4627 16.1333 20.7082 15.9747Z" fill="currentColor"/>
</svg>
