<svg width="26" height="20" viewBox="0 0 26 20" fill="none" xmlns="http://www.w3.org/2000/svg">
<path d="M22.5412 4.99618C22.5575 5.21493 22.5575 5.43243 22.5575 5.64993C22.5575 12.3062 17.4912 19.9762 8.2325 19.9762C5.38 19.9762 2.73 19.1499 0.5 17.7149C0.905 17.7612 1.295 17.7774 1.71625 17.7774C4.07 17.7774 6.23625 16.9824 7.9675 15.6262C5.75375 15.5799 3.89875 14.1299 3.25875 12.1349C3.57 12.1812 3.8825 12.2124 4.21 12.2124C4.66125 12.2124 5.115 12.1499 5.53625 12.0412C3.2275 11.5737 1.49875 9.54743 1.49875 7.09993V7.03743C2.17 7.41118 2.94875 7.64493 3.77375 7.67618C2.4175 6.77368 1.52875 5.22993 1.52875 3.48368C1.52875 2.54868 1.7775 1.69118 2.21375 0.943682C4.6925 3.99743 8.41875 5.99368 12.5963 6.21243C12.5188 5.83743 12.4712 5.44868 12.4712 5.05868C12.4712 2.28368 14.7162 0.0236816 17.5062 0.0236816C18.9562 0.0236816 20.265 0.631181 21.185 1.61368C22.3225 1.39493 23.4125 0.973681 24.38 0.397431C24.0063 1.56618 23.21 2.54868 22.1663 3.17243C23.18 3.06243 24.1625 2.78243 25.065 2.39243C24.38 3.38993 23.5237 4.27868 22.5412 4.99618Z" fill="currentColor"/>
</svg>
